<svg width="26" height="26" viewBox="0 0 26 26" fill="none" xmlns="http://www.w3.org/2000/svg">
<g clip-path="url(#clip0_225_4765)">
<path d="M0.564468 8.67922H5.889V25.8055H0.564468V8.67922ZM3.22688 0.166016C4.92866 0.166016 6.31166 1.54902 6.31166 3.25366C6.31166 4.95658 4.92866 6.33959 3.22688 6.33959C1.5211 6.33959 0.14209 4.95658 0.14209 3.25366C0.14209 1.54902 1.5211 0.166016 3.22688 0.166016Z" fill="#052F21"/>
<path d="M9.22852 8.678H14.3342V11.0199H14.4069C15.1176 9.67287 16.8544 8.25391 19.4432 8.25391C24.8334 8.25391 25.8283 11.7999 25.8283 16.4112V25.8043H20.5077V17.4757C20.5077 15.4891 20.4732 12.9346 17.7417 12.9346C14.9717 12.9346 14.5491 15.0999 14.5491 17.333V25.8043H9.22852V8.678Z" fill="#052F21"/>
</g>
<defs>
<clipPath id="clip0_225_4765">
<rect width="26" height="26" fill="white"/>
</clipPath>
</defs>
</svg>
