<svg width="28" height="28" viewBox="0 0 28 28" fill="none" xmlns="http://www.w3.org/2000/svg">
<path d="M14.6 14.2998L24.9 5.9998C24.4 5.4998 23.7 5.2998 23 5.2998H5C4.3 5.2998 3.6 5.5998 3 5.9998L13.4 14.2998C13.8 14.4998 14.2 14.4998 14.6 14.2998Z" fill="#052F21"/>
<path d="M15.8 15.8998C15.2 16.2998 14.6 16.4998 14 16.4998C13.4 16.4998 12.8 16.2998 12.3 15.9998L2 7.7998V19.6998C2 21.3998 3.3 22.6998 5 22.6998H23C24.7 22.6998 26 21.3998 26 19.6998V8.2998C26 8.0998 26 7.8998 25.9 7.7998L15.8 15.8998Z" fill="#052F21"/>
</svg>
