<svg width="32" height="32" viewBox="0 0 32 32" fill="none" xmlns="http://www.w3.org/2000/svg">
<path d="M13.2159 8.06354C12.8339 3.66954 8.24992 1.51354 8.05592 1.42554C7.87456 1.34029 7.67132 1.31305 7.47392 1.34754C2.18192 2.22554 1.38592 5.30554 1.35392 5.43354C1.31038 5.61192 1.31731 5.79888 1.37392 5.97354C7.68592 25.5575 20.8039 29.1875 25.1159 30.3815C25.4479 30.4735 25.7219 30.5475 25.9299 30.6155C26.1673 30.6931 26.4252 30.6781 26.6519 30.5735C26.7839 30.5135 29.8999 29.0455 30.6619 24.2575C30.6957 24.0485 30.6621 23.8342 30.5659 23.6455C30.4979 23.5135 28.8679 20.4115 24.3479 19.3155C24.1946 19.2763 24.034 19.2749 23.88 19.3115C23.726 19.3481 23.5832 19.4216 23.4639 19.5255C22.0379 20.7435 20.0679 22.0415 19.2179 22.1755C13.5199 19.3895 10.3379 14.0435 10.2179 13.0295C10.1479 12.4595 11.4539 10.4575 12.9559 8.82954C13.0503 8.72708 13.1222 8.60599 13.167 8.47407C13.2118 8.34214 13.2284 8.2023 13.2159 8.06354Z" fill="#052F21"/>
</svg>
